Enhance Definition

Dolby Digital Stereo

Advanced Video Coding - H.264/MPEG-4 AVC

----------------------------------------------------------

Black Hawk Down (2001) 
http://www.imdb.com/title/tt0265086/


The true story of the United States' involvement in Somalia during an ill-fated humanitarian mission. On October 3, 1993, U.S. soldiers entered Somalia on an exercise that was supposed to take less than an hour. The mission turned into a nightlong battle against thousands of heavily armed Somalians. Eighteen U.S. soldiers and more than 500 Somalians were killed as a result of this conflict. 


Starring: Josh Hartnett, Ewan McGregor, Tom Sizemore, Eric Bana, William Fichtner

Director: Ridley Scott

-----------------------------------------------------------

Format                           : AVI
Format/Info                      : Audio Video Interleave
File size                        : 995 MiB
Duration                         : 2h 24mn
Overall bit rate                 : 964 Kbps

Video
ID                               : 0
Format                           : AVC
Format/Info                      : Advanced Video Codec
Format profile                   : Main@L3.0
Format settings, CABAC           : Yes
Format settings, ReFrames        : 2 frames
Codec ID                         : H264
Duration                         : 2h 23mn
Bit rate                         : 764 Kbps
Width                            : 720 pixels
Height                           : 400 pixels
Display aspect ratio             : 16:9
Frame rate                       : 25.000 fps
Resolution                       : 8 bits
Colorimetry                      : 4:2:0
Scan type                        : Progressive
Bits/(Pixel*Frame)               : 0.106
Stream size                      : 785 MiB (79%)
Writing library                  : x264 core 65

Audio
ID                               : 1
Format                           : AC-3
Format/Info                      : Audio Coding 3
Codec ID                         : 2000
Duration                         : 2h 24mn
Bit rate mode                    : Constant
Bit rate                         : 192 Kbps
Channel(s)                       : 2 channels
Channel positions                : L R
Sampling rate                    : 48.0 KHz
Stream size                      : 198 MiB (20%)
Alignment                        : Aligned on interleaves
Interleave, duration             : 32 ms (0.80 video frame)
Interleave, preload duration     : 2592 ms


---------------------------------------------------------------

Download Sample

Download Official Trailer

!